PathFileType	4	(X/Y/Z)	1H_rest_slow_left.trc
DataRate	CameraRate	NumFrames	NumMarkers	Units	OrigDataRate	OrigDataStartFrame	OrigNumFrames
250.00	250.00	12	18	mm	250.00	1	13604
Frame#	Time	c7	r_should	l_should	clavicle	r_upa	r_elb_l	r_elb_m	r_low	r_wri_l	r_wri_m	r_met	l_upa	l_elb_l	l_elb_m	l_low	l_wri_l	l_wri_m	l_met
	X1	Y1	Z1	X2	Y2	Z2	X3	Y3	Z3	X4	Y4	Z4	X5	Y5	Z5	X6	Y6	Z6	X7	Y7	Z7	X8	Y8	Z8	X9	Y9	Z9	X10	Y10	Z10	X11	Y11	Z11	X12	Y12	Z12	X13	Y13	Z13	X14	Y14	Z14	X15	Y15	Z15	X16	Y16	Z16	X17	Y17	Z17	X18	Y18	Z18
1	0.00000	660.29004	1419.46399	243.04611	726.51520	1369.12109	395.01816	692.37549	1349.04968	76.40988	776.21106	1267.57898	231.62683	718.40814	1171.86169	487.82053	709.45746	1086.20569	518.16125	647.16492	1050.77698	463.28705	756.90717	910.94214	504.14294	777.25293	845.87543	474.00113	716.34338	825.58752	510.08469	816.13605	768.02972	501.72998	668.54907	1160.04761	11.39273	669.36798	1051.53882	-0.41454	618.87866	1019.16876	70.78220	689.52429	882.66541	-6.87056	718.61462	809.38849	16.53763	646.67230	792.62036	21.18192	734.42480	721.52930	-9.13004
2	0.00400	660.12012	1419.45557	242.97574	726.34338	1369.13818	394.97885	692.21594	1349.01526	76.35607	776.04224	1267.59033	231.59348	718.30981	1171.88599	487.80307	709.39374	1086.22998	518.16034	647.11871	1050.76123	463.28506	756.95050	910.99615	504.16684	777.31189	845.92200	474.03531	716.41473	825.62262	510.14847	816.24103	768.11395	501.78845	668.35498	1160.05249	11.26178	669.24792	1051.57532	-0.62965	618.91815	1019.09637	70.60281	689.91626	882.82159	-6.99354	719.31049	809.67810	16.47421	647.37830	792.68176	21.08072	735.46863	721.93384	-9.20333
3	0.00800	659.95410	1419.44934	242.90276	726.16486	1369.15161	394.93311	692.06378	1348.97339	76.30988	775.88043	1267.59436	231.56631	718.20148	1171.90552	487.78763	709.32196	1086.25183	518.15161	647.06897	1050.73889	463.28735	756.98553	911.04779	504.19592	777.37701	845.96741	474.07901	716.47968	825.66022	510.20389	816.34674	768.19360	501.84180	668.15808	1160.04797	11.13051	669.13318	1051.60144	-0.83835	618.96582	1019.01605	70.42334	690.31036	882.97662	-7.11862	720.01288	809.97272	16.41326	648.10480	792.72711	20.97582	736.49310	722.34302	-9.27916
4	0.01200	659.78589	1419.44897	242.82718	725.98511	1369.16394	394.88647	691.91357	1348.93262	76.26157	775.71368	1267.59265	231.53998	718.09460	1171.92249	487.76654	709.25177	1086.27844	518.14923	647.01666	1050.72339	463.28317	757.01642	911.09753	504.22482	777.44019	846.02020	474.11459	716.54114	825.70374	510.25522	816.45215	768.27234	501.89197	667.95758	1160.03638	11.00849	669.02032	1051.62500	-1.04290	619.02228	1018.93488	70.23300	690.70465	883.12799	-7.24266	720.71313	810.27142	16.34753	648.82275	792.79102	20.87573	737.51648	722.75806	-9.35151
5	0.01600	659.61371	1419.45227	242.75305	725.79840	1369.18494	394.83902	691.76544	1348.89185	76.21272	775.55072	1267.59253	231.50987	717.98657	1171.94666	487.74026	709.18134	1086.30908	518.14215	646.96436	1050.71155	463.28079	757.04456	911.14728	504.24887	777.49780	846.07971	474.15009	716.59778	825.75085	510.30075	816.55463	768.35376	501.93716	667.76135	1160.03174	10.88199	668.90204	1051.65112	-1.25058	619.08569	1018.86060	70.04378	691.10791	883.28857	-7.36227	721.42139	810.58917	16.27579	649.54480	792.86322	20.75584	738.54645	723.18176	-9.42235
6	0.02000	659.43518	1419.46216	242.67778	725.60852	1369.20813	394.78317	691.61859	1348.85559	76.15668	775.39331	1267.59387	231.47440	717.87512	1171.97986	487.71420	709.10785	1086.34851	518.12732	646.91553	1050.70703	463.26700	757.06287	911.19812	504.27283	777.54718	846.13086	474.18149	716.65167	825.80798	510.34164	816.64783	768.44232	501.98184	667.56836	1160.02515	10.75962	668.78058	1051.68359	-1.46228	619.16412	1018.79218	69.85954	691.52545	883.45215	-7.48255	722.14008	810.91864	16.20682	650.27399	792.94971	20.62684	739.58759	723.59485	-9.48265
7	0.02400	659.25720	1419.47156	242.59792	725.41675	1369.23975	394.72629	691.47156	1348.81738	76.10170	775.23389	1267.59253	231.43887	717.75916	1172.01892	487.68979	709.03113	1086.38281	518.10803	646.86871	1050.70898	463.24884	757.07458	911.25574	504.30011	777.58514	846.19049	474.21002	716.70068	825.86774	510.38040	816.72784	768.53448	502.02866	667.37866	1160.01636	10.63776	668.65961	1051.72034	-1.66656	619.24347	1018.72815	69.68479	691.96051	883.62622	-7.60987	722.85297	811.23889	16.13050	651.02216	793.03973	20.48476	740.61865	724.02679	-9.56233
8	0.02800	659.07660	1419.48303	242.51813	725.22937	1369.27698	394.66913	691.31860	1348.78418	76.05143	775.06909	1267.60034	231.41158	717.63574	1172.06238	487.66553	708.94019	1086.42383	518.09662	646.81537	1050.71411	463.23346	757.07629	911.31537	504.32144	777.61713	846.26044	474.23935	716.74377	825.92548	510.41119	816.79761	768.62878	502.07913	667.18866	1160.01733	10.51611	668.54852	1051.75854	-1.86800	619.33191	1018.66461	69.50217	692.39807	883.81073	-7.74549	723.58185	811.56122	16.04896	651.76575	793.13562	20.33871	741.65643	724.45288	-9.65609
9	0.03200	658.89789	1419.48816	242.43610	725.04517	1369.30823	394.60788	691.16107	1348.75342	75.99550	774.90198	1267.60901	231.38185	717.50513	1172.10571	487.63260	708.84552	1086.47034	518.08295	646.76544	1050.71692	463.20569	757.07312	911.38074	504.33786	777.65051	846.33032	474.26828	716.78326	825.98389	510.43082	816.86487	768.72455	502.12830	667.00214	1160.01855	10.39124	668.44666	1051.79553	-2.07081	619.42291	1018.60132	69.31342	692.84155	883.99536	-7.88648	724.31940	811.88898	15.96799	652.50873	793.23590	20.20155	742.69330	724.89209	-9.75278
10	0.03600	658.71991	1419.48975	242.35884	724.85663	1369.34851	394.54688	690.99664	1348.72571	75.94537	774.73865	1267.62244	231.34694	717.37524	1172.15112	487.59549	708.74280	1086.51611	518.06042	646.70624	1050.72498	463.17691	757.06738	911.45465	504.35568	777.68420	846.40277	474.29156	716.81641	826.04413	510.44702	816.93085	768.82367	502.16782	666.82397	1160.02185	10.27239	668.35986	1051.83679	-2.26951	619.53009	1018.53369	69.13129	693.30261	884.18787	-8.03054	725.06519	812.22723	15.89034	653.25793	793.31335	20.05770	743.71863	725.33966	-9.85076
11	0.04000	658.54419	1419.49060	242.28496	724.66504	1369.38855	394.48178	690.82916	1348.69910	75.89793	774.57898	1267.63867	231.30980	717.23621	1172.19592	487.56213	708.63684	1086.56494	518.03467	646.63611	1050.73560	463.15512	757.05695	911.53320	504.36426	777.70984	846.48260	474.31415	716.84528	826.10370	510.46295	816.98859	768.92914	502.20453	666.65564	1160.03052	10.14869	668.28723	1051.88513	-2.46773	619.64838	1018.47601	68.94681	693.76837	884.38013	-8.16820	725.79999	812.56256	15.82210	654.02289	793.39081	19.90553	744.76947	725.78802	-9.94896
12	0.04400	658.36469	1419.49060	242.21448	724.46582	1369.42310	394.41394	690.65619	1348.67639	75.84270	774.41602	1267.65967	231.26569	717.09521	1172.24915	487.52545	708.52216	1086.61743	518.00665	646.56976	1050.75024	463.12958	757.03918	911.60815	504.37427	777.72900	846.55621	474.33633	716.86780	826.15863	510.47278	817.03400	769.03253	502.24942	666.49701	1160.03577	10.02040	668.23163	1051.93738	-2.67093	619.77637	1018.41449	68.76913	694.23419	884.56995	-8.30305	726.53174	812.89642	15.75408	654.79028	793.45819	19.75775	745.81470	726.22394	-10.03125
